<?xml version="1.0" encoding="UTF-8"?>
<svg id="Layer_1" xmlns="http://www.w3.org/2000/svg" xmlns:xlink="http://www.w3.org/1999/xlink" version="1.1" viewBox="0 0 986.71 381.88">
  <!-- Generator: Adobe Illustrator 29.8.2, SVG Export Plug-In . SVG Version: 2.1.1 Build 3)  -->
  <defs>
    <style>
      .st0 {
        fill: none;
      }

      .st1 {
        fill: #cd4edc;
      }

      .st2 {
        fill: #e195ea;
      }

      .st3 {
        fill: #151515;
      }

      .st4 {
        fill: #c122d3;
      }

      .st5 {
        clip-path: url(#clippath);
      }
    </style>
    <clipPath id="clippath">
      <path class="st0" d="M845.1,97.69c-78.22,0-141.62,63.4-141.62,141.62s63.4,141.6,141.62,141.6c26.32,0,50.96-7.17,72.06-19.69v19.69h69.54v-141.6c0-78.22-63.4-141.62-141.6-141.62ZM845.1,311.38c-39.75,0-72.08-32.33-72.08-72.06s32.33-72.08,72.08-72.08,72.06,32.33,72.06,72.08v.27c-.15,39.62-32.41,71.8-72.06,71.8h0Z"/>
    </clipPath>
  </defs>
  <path class="st3" d="M69.54,192.71v9.29c0,58.92,47.92,108.17,106.84,108.17v69.54C79.15,379.71,0,299.23,0,202.01V1.22h69.54v121.95"/>
  <path class="st3" d="M320.91,168.19c39.74,0,72.07,32.33,72.07,72.07s-32.33,72.07-72.07,72.07-72.07-32.33-72.07-72.07,32.33-72.07,72.07-72.07M320.91,98.65c-78.21,0-141.61,63.4-141.61,141.61s63.4,141.61,141.61,141.61,141.61-63.4,141.61-141.61-63.4-141.61-141.61-141.61h0Z"/>
  <path class="st3" d="M845.1,97.69c-78.22,0-141.62,63.4-141.62,141.62s63.4,141.6,141.62,141.6c26.32,0,50.96-7.17,72.06-19.69v19.69h69.54v-141.6c0-78.22-63.4-141.62-141.6-141.62ZM845.1,311.38c-39.75,0-72.08-32.33-72.08-72.06s32.33-72.08,72.08-72.08,72.06,32.33,72.06,72.08v.27c-.15,39.62-32.41,71.8-72.06,71.8h0Z"/>
  <path class="st3" d="M499.95,380.47h-42.39v-69.54h42.39c9.57,0,18.35-5.44,22.65-13.93l56.3-143.72c15.4-33.67,49.28-55.43,86.31-55.43h42.39v69.54h-42.39c-9.57,0-18.36,5.44-22.65,13.93l-56.3,143.72c-15.41,33.67-49.29,55.43-86.32,55.43h.01Z"/>
  <g class="st5">
    <g>
      <g>
        <path class="st4" d="M842.78,369.61c22.34,0,66.99-3.99,84.89-10.92,6.3-2.44,12.23-5.24,17.71-8.36,25.3,14.39,42.48-.4,42.48,23.25l-1.27,9.04-62.12-.74c-4.14,0-9.88,2.2-9.88-1.94l1.84-14.33c0-22.04-39.92,4-73.65,4Z"/>
        <path class="st1" d="M986.7,369.05v-77.95c0,23.65-28.52,48.52-41.29,59.24,34.05,23.74,40.33,16.25,41.28,20.11v-1.4h0Z"/>
      </g>
      <path class="st2" d="M753.11,346.83c24.73-21.65,57.03-34.77,92.38-34.77,26.18,0,58.01,10.7,78.99,23.2,7.38,4.4,14.33,9.45,20.75,15.08-6.42,5.63-13.37,10.68-20.75,15.08-20.98,12.5-52.81,16.19-78.99,16.19-35.36,0-68.2-12.92-92.92-34.57l.54-.21Z"/>
    </g>
  </g>
</svg>